<svg xmlns="http://www.w3.org/2000/svg" width="33" height="32" fill="none"><path fill="#fff" fill-rule="evenodd" d="m21.094 4.75 2.426 2.424L30.7 0h-4.915l-4.691 4.75Zm10.933 3.362L28.6 4.75l3.427-3.424v6.786ZM6.08 19.749l6.178-6.173 2.426 2.423-6.178 6.174-2.426-2.424Zm15.01.002 6.18-6.174 2.425 2.424-6.178 6.173-2.426-2.424Zm-5.08-2.425-2.425 2.424 6.178 6.173 2.426-2.424-6.178-6.173Zm-3.748 3.75 6.18 6.174-2.427 2.487-6.18-6.237 2.427-2.424Zm18.828-3.75.938.937v4.849L28.6 19.75l2.49-2.424ZM2.326 15.999l6.179-6.174 2.426 2.424-6.179 6.174-2.426-2.424Zm21.19-6.172L17.337 16l2.426 2.424 6.18-6.173-2.427-2.424Zm3.757-3.751 4.754 4.687v4.849L24.847 8.5l2.426-2.424ZM13.587 4.75l6.18 6.174L22.193 8.5l-6.18-6.237-2.426 2.487Zm-1.329 1.327L9.832 8.5l6.179 6.173 2.426-2.424-6.179-6.173ZM25.947 27.25l-2.427-2.424L16.402 32h4.853l4.692-4.75ZM12.26 28.576l2.426 2.486-.938.938H8.896l3.364-3.424Zm-1.327-1.326-2.427-2.424L1.327 32h4.915l4.692-4.75Zm13.913-3.75 2.426-2.424 4.754 4.687v4.911l-7.18-7.174ZM0 23.888v6.786l3.427-3.424L0 23.888ZM23.909 32l3.364-3.424L30.701 32h-6.792ZM17.34.937l2.427 2.487L23.132 0h-4.853l-.939.938ZM8.12 0 4.754 3.424 1.327 0h6.792ZM4.754 25.924 7.18 23.5 0 16.388v4.849l4.754 4.687Zm3.753-18.75L6.081 4.75 10.772 0h4.853L8.507 7.174Zm-3.753 3.75L7.18 8.5 0 1.326v4.91l4.754 4.688ZM3.427 12.25.938 14.674 0 13.737V8.888l3.427 3.362Z" clip-rule="evenodd"/></svg>