<svg  xmlns="http://www.w3.org/2000/svg">
    <symbol width="16" height="16" viewBox="0 0 16 16" fill="none" id="search">
        <g clip-path="url(#clip0_1_155)">
        <path d="M15.7824 13.833L12.6666 10.7177C12.5259 10.5771 12.3353 10.499 12.1353 10.499H11.6259C12.4884 9.39596 13.001 8.00859 13.001 6.49937C13.001 2.90909 10.0914 0 6.50048 0C2.90959 0 0 2.90909 0 6.49937C0 10.0896 2.90959 12.9987 6.50048 12.9987C8.00996 12.9987 9.39756 12.4863 10.5008 11.6239V12.1332C10.5008 12.3332 10.5789 12.5238 10.7195 12.6644L13.8354 15.7797C14.1292 16.0734 14.6042 16.0734 14.8948 15.7797L15.7793 14.8954C16.0731 14.6017 16.0731 14.1267 15.7824 13.833ZM6.50048 10.499C4.29094 10.499 2.50018 8.71165 2.50018 6.49937C2.50018 4.29021 4.28781 2.49976 6.50048 2.49976C8.71001 2.49976 10.5008 4.28708 10.5008 6.49937C10.5008 8.70852 8.71314 10.499 6.50048 10.499Z" fill="white"/>
        </g>
        <defs>
        <clipPath id="clip0_1_155">
        <rect width="16" height="16" fill="white"/>
        </clipPath>
        </defs>
    </symbol>
    <symbol width="64" height="64" viewBox="0 0 64 64" fill="none" id="thumbs">
        <path d="M58.2837 35.8363C59.38 33.98 60 32 60 29.6063C60 24.1044 55.3477 18.9088 49.2725 18.9088H44.7125C45.3275 17.3075 45.8187 15.3925 45.8187 13.0913C45.8187 3.992 41.1075 0 33.91 0C26.2091 0 26.6484 11.8666 24.94 13.575C22.0966 16.4184 18.7381 21.8809 16.345 24H4C1.79087 24 0 25.7909 0 28V58C0 60.2091 1.79087 62 4 62H12C13.8616 62 15.426 60.7282 15.8722 59.0062C21.4359 59.1314 25.2547 63.9987 38.0975 63.9987C39 63.9987 40 64 40.875 64C50.5146 64 54.8732 59.0721 54.9925 52.0838C56.6574 49.7806 57.5299 46.6935 57.16 43.71C58.3918 41.4035 58.868 38.6671 58.2837 35.8363ZM50.565 42.565C52.135 45.2062 50.7225 48.7412 48.8225 49.7612C49.785 55.8587 46.6215 57.9987 42.1825 57.9987H37.455C28.5001 57.9987 22.7014 53.2713 16 53.2713V30H17.365C20.91 30 25.8625 21.1387 29.1825 17.8175C32.7275 14.2725 31.5462 8.36375 33.91 6C39.8187 6 39.8187 10.1225 39.8187 13.0913C39.8187 17.9875 36.2738 20.1813 36.2738 24.9088H49.2725C51.9112 24.9088 53.9888 27.2725 54 29.6362C54.0112 31.9987 52.3975 34.3625 51.2163 34.3625C52.9024 36.1819 53.2626 40.017 50.565 42.565ZM11 54C11 55.6569 9.65687 57 8 57C6.34312 57 5 55.6569 5 54C5 52.3431 6.34312 51 8 51C9.65687 51 11 52.3431 11 54Z" fill="#00A2FF"/>
    </symbol>
    <symbol width="64" height="64" viewBox="0 0 64 64" fill="none" id="blue">
        <g clip-path="url(#clip0_1_168)">
        <path d="M63.1296 55.3321L50.6662 42.8708C50.1037 42.3084 49.3411 41.9959 48.541 41.9959H46.5034C49.9537 37.5838 52.0038 32.0344 52.0038 25.9975C52.0038 11.6364 40.3655 0 26.0019 0C11.6384 0 0 11.6364 0 25.9975C0 40.3586 11.6384 51.9949 26.0019 51.9949C32.0398 51.9949 37.5903 49.9451 42.0031 46.4955V48.5328C42.0031 49.3327 42.3156 50.0951 42.8781 50.6576L55.3416 63.1188C56.5166 64.2937 58.4168 64.2937 59.5794 63.1188L63.1171 59.5817C64.2922 58.4068 64.2922 56.507 63.1296 55.3321ZM26.0019 41.9959C17.1638 41.9959 10.0007 34.8466 10.0007 25.9975C10.0007 17.1608 17.1513 9.99902 26.0019 9.99902C34.84 9.99902 42.0031 17.1483 42.0031 25.9975C42.0031 34.8341 34.8526 41.9959 26.0019 41.9959Z" fill="#5373FD"/>
        </g>
        <defs>
        <clipPath id="clip0_1_168">
        <rect width="64" height="64" fill="white"/>
        </clipPath>
        </defs>
    </symbol>
    <symbol width="64" height="64" viewBox="0 0 64 64" fill="none" id="red">
        <path d="M32 1C14.8791 1 1 14.8791 1 32C1 49.1209 14.8791 63 32 63C49.1209 63 63 49.1209 63 32C63 14.8791 49.1209 1 32 1ZM32 7C45.8165 7 57 18.1814 57 32C57 45.8165 45.8186 57 32 57C18.1835 57 7 45.8186 7 32C7 18.1835 18.1814 7 32 7ZM49.5255 23.2834L46.7085 20.4436C46.1251 19.8555 45.1754 19.8516 44.5872 20.4351L26.9182 37.9621L19.4443 30.4275C18.8609 29.8394 17.9111 29.8355 17.323 30.4189L14.4831 33.2359C13.895 33.8192 13.8911 34.769 14.4746 35.3573L25.8223 46.7967C26.4056 47.3849 27.3554 47.3887 27.9435 46.8052L49.5171 25.4048C50.1051 24.8213 50.1089 23.8715 49.5255 23.2834Z" fill="#FF6363"/>
    </symbol>
    <symbol width="40" height="64" viewBox="0 0 40 64" fill="none" id="facebook">
        <path d="M34.8925 36L36.67 24.4175H25.5562V16.9013C25.5562 13.7325 27.1087 10.6438 32.0862 10.6438H37.1387V0.7825C37.1387 0.7825 32.5537 0 28.17 0C19.0175 0 13.035 5.5475 13.035 15.59V24.4175H2.86124V36H13.035V64H25.5562V36H34.8925Z" fill="white"/>
    </symbol>
    <symbol width="64" height="64" viewBox="0 0 64 64" fill="none" id="twitter">    
            <path d="M57.4212 18.9645C57.4619 19.533 57.4619 20.1016 57.4619 20.6701C57.4619 38.0101 44.264 57.9899 20.1421 57.9899C12.7106 57.9899 5.80713 55.8375 0 52.1016C1.05587 52.2234 2.071 52.264 3.1675 52.264C9.29938 52.264 14.9441 50.193 19.4517 46.66C13.6852 46.5381 8.85275 42.7615 7.18775 37.5635C8 37.6853 8.81213 37.7665 9.665 37.7665C10.8426 37.7665 12.0204 37.604 13.1167 37.3199C7.10662 36.1015 2.59888 30.8224 2.59888 24.4468V24.2844C4.345 25.259 6.37563 25.8681 8.52775 25.9493C4.99475 23.5939 2.68012 19.5736 2.68012 15.0254C2.68012 12.5889 3.32975 10.3554 4.46688 8.40613C10.9237 16.3655 20.6294 21.5634 31.5125 22.132C31.3095 21.1574 31.1876 20.1423 31.1876 19.127C31.1876 11.8985 37.0354 6.01025 44.3044 6.01025C48.081 6.01025 51.4921 7.594 53.8881 10.1524C56.8525 9.58388 59.6951 8.48738 62.213 6.98488C61.2383 10.0306 59.1672 12.589 56.4465 14.2133C59.0861 13.9291 61.6445 13.198 63.9997 12.1829C62.2132 14.7818 59.9796 17.0964 57.4212 18.9645Z" fill="white"/>
    </symbol>
</svg>
