<svg xmlns="http://www.w3.org/2000/svg" width="31" height="32"><path d="M31 16c0 8.563-6.938 15.5-15.5 15.5-1.602 0-3.137-.242-4.586-.695.629-1.032 1.574-2.72 1.922-4.063.187-.722.965-3.687.965-3.687.504.965 1.98 1.78 3.55 1.78 4.672 0 8.044-4.296 8.044-9.64 0-5.12-4.184-8.953-9.56-8.953-6.687 0-10.241 4.488-10.241 9.383 0 2.273 1.21 5.105 3.144 6.008.293.137.45.074.52-.207.047-.215.312-1.27.43-1.758a.455.455 0 0 0-.106-.441c-.633-.782-1.145-2.207-1.145-3.54 0-3.417 2.586-6.726 7-6.726 3.805 0 6.477 2.594 6.477 6.309 0 4.19-2.121 7.097-4.875 7.097-1.52 0-2.664-1.254-2.297-2.797.438-1.843 1.281-3.832 1.281-5.164 0-1.187-.636-2.18-1.96-2.18-1.555 0-2.805 1.606-2.805 3.762 0 1.375.46 2.301.46 2.301s-1.53 6.484-1.812 7.7c-.312 1.335-.187 3.222-.054 4.448C4.086 28.18 0 22.57 0 16 0 7.437 6.938.5 15.5.5 24.063.5 31 7.438 31 16Zm0 0"/></svg>