<svg xmlns="http://www.w3.org/2000/svg">
    <symbol viewBox="0 0 39 37" width="39" height="37"  id="loudspeaker">
        <path d="M31.3357 13.0215C33.8562 11.0404 32.9856 7.12262 29.836 6.31066C29.013 6.0985 28.161 6.14263 27.38 6.42889L24.8774 2.25793C23.859 0.560599 21.3333 0.515619 20.2489 2.17053C17.1708 6.86843 13.07 10.8641 8.2015 13.8962C7.92426 14.0685 7.82149 14.4246 7.98554 14.7144C8.01185 14.7608 12.1572 21.6688 12.1846 21.7145C12.3629 22.0116 12.7577 22.1137 13.0669 21.942C13.3758 21.7704 13.4816 21.3903 13.3033 21.093L9.41597 14.6141C14.0582 11.6279 18.1696 7.67449 21.3416 2.83342C21.9089 1.96747 23.2276 1.99435 23.7587 2.87941L32.7197 17.8144C33.2515 18.7006 32.614 19.8118 31.5526 19.8516C25.598 20.0748 19.768 21.5403 14.4377 24.1636C14.415 24.1747 8.37168 27.5326 7.9555 27.7638C6.87521 28.364 5.48902 28.0066 4.86544 26.9671L1.59405 21.5146C0.97039 20.4752 1.34184 19.1414 2.42205 18.5412L6.35933 16.3539C6.66821 16.1823 6.77405 15.8022 6.59571 15.5049C6.41737 15.2076 6.02227 15.1059 5.71346 15.2775L1.77619 17.4648C0.0791766 18.4076 -0.504362 20.5031 0.475415 22.1361L3.74688 27.5885C4.72674 29.2216 6.90452 29.7829 8.60153 28.8401L8.75048 28.7574L12.7895 35.489C13.3696 36.4559 14.6525 36.7871 15.6579 36.2286L17.0746 35.4416C18.0797 34.8832 18.4234 33.6487 17.8431 32.6815L14.9806 27.9106C14.8022 27.6134 14.4072 27.5116 14.0983 27.6832C13.7894 27.8548 13.6836 28.2349 13.8619 28.5321L16.7245 33.303C16.9478 33.6751 16.8156 34.1503 16.4287 34.3651L15.0121 35.1522C14.6253 35.367 14.1315 35.2397 13.9082 34.8675L9.8692 28.1359L15.0406 25.2629C20.101 22.775 25.7307 21.3136 31.603 21.0935C33.6381 21.0171 34.8553 18.8873 33.8384 17.1928L31.3357 13.0215ZM31.1512 8.72914C31.7888 9.79186 31.5598 11.1106 30.6771 11.9239L28.0384 7.52596C29.1952 7.19945 30.5033 7.64924 31.1512 8.72914ZM37.4682 5.96613L35.7971 6.89454C35.488 7.06622 35.0931 6.96422 34.9149 6.66708C34.7365 6.36985 34.8424 5.98974 35.1513 5.81814L36.8224 4.88973C37.1315 4.71805 37.5264 4.82005 37.7046 5.11719C37.883 5.41441 37.7771 5.79452 37.4682 5.96613ZM30.2815 2.42402L30.6891 0.960752C30.7814 0.629194 31.1354 0.432575 31.4802 0.52129C31.8247 0.610162 32.0292 0.950964 31.9368 1.28244L31.5293 2.74571C31.4371 3.07641 31.0839 3.27404 30.7382 3.18517C30.3937 3.0963 30.1892 2.75558 30.2815 2.42402ZM38.7287 12.6022C38.6514 12.8798 38.3904 13.0629 38.1052 13.0629C37.9883 13.0629 38.0701 13.0757 36.4169 12.6495C36.0724 12.5606 35.8679 12.2199 35.9602 11.8883C36.0526 11.5568 36.4067 11.3602 36.7512 11.4489L38.272 11.8409C38.6165 11.9298 38.8211 12.2706 38.7287 12.6022Z" fill="#007FFC"/>
    </symbol>
    <symbol viewBox="0 0 40 36" id="house">
        <path d="M37.418 20.325V33C37.418 34.6542 35.9795 36 34.2113 36H5.99165C4.22343 36 2.78487 34.6542 2.78487 33V20.325C2.78487 19.9937 3.07204 19.725 3.42623 19.725C3.78042 19.725 4.06758 19.9937 4.06758 20.325V33C4.06758 33.9925 4.93069 34.8 5.99165 34.8H12.9664V24.675C12.9664 23.0208 14.4049 21.675 16.1732 21.675H24.0297C25.798 21.675 27.2365 23.0208 27.2365 24.675V32.4C27.2365 32.7313 26.9494 33 26.5952 33C26.241 33 25.9538 32.7313 25.9538 32.4V24.675C25.9538 23.6825 25.0906 22.875 24.0297 22.875H16.1732C15.1123 22.875 14.2491 23.6825 14.2491 24.675V34.8H19.4601V25.35C19.4601 25.0187 19.7473 24.75 20.1014 24.75C20.4556 24.75 20.7428 25.0187 20.7428 25.35V34.8H34.2113C35.2721 34.8 36.1353 33.9925 36.1353 33V20.325C36.1353 19.9937 36.4225 19.725 36.7767 19.725C37.1309 19.725 37.418 19.9936 37.418 20.325ZM5.02962 9.6C5.02962 9.93135 5.31678 10.2 5.67097 10.2C40.5661 10.2 38.836 10.2584 39.0909 10.0754C39.2242 9.9795 39.3113 9.84112 39.3352 9.68303C39.3709 9.4419 39.6011 10.0349 35.1204 0.361425C35.0186 0.141975 34.7875 0 34.5318 0H5.67089C5.41531 0 5.18402 0.14205 5.08245 0.361425L0.913642 9.36143C0.839966 9.52058 0.86073 9.26798 0.86073 13.3224C0.86538 16.0513 3.23895 18.2714 6.15191 18.2714C8.15446 18.2714 9.90207 17.2222 10.8004 15.6797C12.8067 19.129 18.0914 19.1328 20.1014 15.682C22.1098 19.13 27.3921 19.1308 29.401 15.682C30.2987 17.2232 32.0464 18.2714 34.0508 18.2714C36.9684 18.2714 39.342 16.0509 39.342 13.3214C39.342 12.9901 39.0548 12.7214 38.7006 12.7214C38.3465 12.7214 38.0593 12.9901 38.0593 13.3214C38.0593 15.3892 36.2611 17.0714 34.0508 17.0714C31.8406 17.0714 30.0424 15.3892 30.0424 13.3214C30.0424 12.9901 29.7552 12.7214 29.401 12.7214C29.0468 12.7214 28.7597 12.9901 28.7597 13.3214C28.7597 15.3892 26.9615 17.0714 24.7512 17.0714C22.5409 17.0714 20.7427 15.3892 20.7427 13.3214C20.7427 12.9901 20.4556 12.7214 20.1014 12.7214C19.7472 12.7214 19.46 12.9901 19.46 13.3214C19.46 15.3892 17.6618 17.0714 15.4515 17.0714C13.2904 17.0714 11.4431 15.4466 11.4431 13.2914C11.4431 12.9601 11.1559 12.6914 10.8017 12.6914C10.4475 12.6914 10.1604 12.9601 10.1604 13.2914C10.1604 15.4284 8.32457 17.0714 6.15191 17.0714C3.94516 17.0714 2.14689 15.3887 2.14344 13.3214V9.72435L6.09202 1.2H34.1109L37.7238 9H5.67097C5.3167 9 5.02962 9.26858 5.02962 9.6Z" fill="#007FFC"/>
    </symbol>
    <symbol  viewBox="0 0 25 36" id="phone" >
        <path d="M21.1924 0H3.55506C1.78683 0 0.348267 1.3458 0.348267 3V33C0.348267 34.6542 1.78683 36 3.55506 36H21.1924C22.9606 36 24.3992 34.6542 24.3992 33V3C24.3992 1.3458 22.9606 0 21.1924 0ZM21.1924 34.8H3.55506C2.49417 34.8 1.63098 33.9925 1.63098 33V3C1.63098 2.00745 2.49417 1.2 3.55506 1.2H21.1924C22.2533 1.2 23.1165 2.00745 23.1165 3V29.55H4.75761C4.40341 29.55 4.11625 29.8187 4.11625 30.15C4.11625 30.4814 4.40341 30.75 4.75761 30.75H23.1165V33C23.1165 33.9925 22.2533 34.8 21.1924 34.8ZM13.8168 32.625C13.8168 32.9564 13.5296 33.225 13.1754 33.225H11.572C11.2178 33.225 10.9307 32.9564 10.9307 32.625C10.9307 32.2937 11.2178 32.025 11.572 32.025H13.1754C13.5296 32.025 13.8168 32.2937 13.8168 32.625ZM7.48177 23.7H17.2657C18.3626 23.7 19.2174 22.8079 19.0988 21.7883L18.241 14.4176C18.139 13.5407 17.3508 12.8794 16.408 12.8794H15.8142V11.7686C15.8141 9.99383 14.2708 8.55 12.3737 8.55C10.4767 8.55 8.93333 9.99383 8.93333 11.7686V12.8793H8.33959C7.39663 12.8793 6.60865 13.5406 6.50651 14.4176L5.64877 21.7883C5.53004 22.8084 6.38553 23.7 7.48177 23.7ZM6.92387 21.9182L7.78161 14.5475C7.81272 14.2806 8.0525 14.0793 8.33951 14.0793H8.93325V15.0155C8.93325 15.3469 9.22042 15.6155 9.57461 15.6155C9.9288 15.6155 10.216 15.3469 10.216 15.0155V11.7686C10.216 10.6556 11.1839 9.75 12.3737 9.75C13.5635 9.75 14.5313 10.6555 14.5313 11.7686V12.8794H11.7571C11.403 12.8794 11.1158 13.148 11.1158 13.4794C11.1158 13.8107 11.403 14.0794 11.7571 14.0794H14.5313V15.0155C14.5313 15.3469 14.8185 15.6155 15.1727 15.6155C15.5269 15.6155 15.8141 15.3469 15.8141 15.0155V14.0794H16.4078C16.6948 14.0794 16.9346 14.2807 16.9657 14.5475L17.8234 21.9182C17.8595 22.2284 17.6012 22.5 17.2655 22.5H7.48177C7.14763 22.5 6.88772 22.2296 6.92387 21.9182Z" 
        fill="#007FFC"/>
    </symbol>
</svg>