<?xml version="1.0" encoding="UTF-8"?>
<svg xmlns="http://www.w3.org/2000/svg" xmlns:xlink="http://www.w3.org/1999/xlink" width="29px" height="29px" viewBox="0 0 29 29" version="1.1">
<g id="surface1">
<path style=" stroke:none;fill-rule:nonzero;fill:rgb(0%,0%,0%);fill-opacity:1;" d="M 26.339844 6.226562 L 26.339844 6.371094 L 25.65625 6.398438 C 25.023438 6.421875 9.914062 6.625 8.84375 6.621094 L 8.382812 6.621094 L 8.316406 6.453125 C 8.242188 6.238281 8.140625 6.234375 8.039062 6.449219 C 7.945312 6.640625 7.847656 6.671875 7.296875 6.671875 L 6.921875 6.671875 L 6.683594 6.882812 C 6.554688 7.003906 6.375 7.230469 6.289062 7.390625 C 6.199219 7.554688 6.105469 7.683594 6.074219 7.683594 C 5.960938 7.683594 5.332031 7.355469 5.15625 7.203125 C 4.992188 7.0625 4.972656 7.058594 4.945312 7.140625 C 4.804688 7.476562 5.023438 8.0625 5.5 8.632812 L 5.78125 8.964844 L 5.703125 9.328125 C 5.574219 9.898438 5.515625 10.085938 5.441406 10.144531 C 5.402344 10.179688 5.117188 10.257812 4.808594 10.320312 C 4.160156 10.453125 3.886719 10.59375 3.667969 10.882812 C 3.550781 11.050781 3.382812 11.46875 3.382812 11.605469 C 3.382812 11.625 3.464844 11.652344 3.566406 11.671875 C 3.664062 11.6875 3.792969 11.734375 3.855469 11.773438 C 3.96875 11.847656 3.964844 11.851562 3.617188 12.078125 C 3.019531 12.464844 2.21875 13.164062 1 14.351562 L 0.472656 14.863281 L 0.507812 15.878906 C 0.535156 16.722656 0.554688 16.9375 0.636719 17.160156 C 0.691406 17.304688 0.734375 17.457031 0.734375 17.496094 C 0.734375 17.535156 0.667969 17.824219 0.585938 18.144531 C 0.378906 18.925781 0.277344 19.769531 0.304688 20.398438 C 0.328125 21.011719 0.445312 21.277344 0.855469 21.707031 C 1.148438 22.015625 1.503906 22.222656 2.03125 22.386719 C 2.347656 22.484375 2.488281 22.5 3.214844 22.5 C 3.957031 22.5 4.085938 22.484375 4.566406 22.359375 C 5.378906 22.152344 6.046875 21.867188 6.707031 21.445312 L 7.011719 21.253906 L 7.710938 21.285156 C 8.601562 21.335938 10.066406 21.203125 10.796875 21.019531 C 11.769531 20.773438 12.082031 20.425781 12.121094 19.542969 C 12.140625 19.097656 12.144531 19.089844 12.308594 18.964844 C 12.59375 18.75 13 18.3125 13.101562 18.121094 C 13.214844 17.894531 13.222656 17.398438 13.121094 17.019531 L 13.054688 16.757812 L 13.332031 16.457031 C 13.96875 15.769531 14.128906 15.328125 13.949219 14.730469 L 13.886719 14.515625 L 15.167969 14.484375 C 16.441406 14.453125 16.449219 14.453125 16.691406 14.316406 C 17.019531 14.140625 17.453125 13.707031 17.582031 13.425781 C 17.640625 13.296875 17.710938 13.015625 17.738281 12.78125 C 17.792969 12.285156 17.941406 11.941406 18.230469 11.664062 L 18.417969 11.480469 L 20.628906 11.445312 C 21.84375 11.429688 22.953125 11.417969 23.09375 11.410156 C 23.320312 11.40625 23.34375 11.398438 23.34375 11.296875 C 23.34375 11.238281 23.363281 11.164062 23.382812 11.136719 C 23.40625 11.097656 24.132812 11.074219 25.738281 11.050781 C 27.011719 11.03125 28.058594 11.011719 28.0625 11.003906 C 28.066406 11 28.097656 10.363281 28.125 9.59375 C 28.171875 8.273438 28.144531 6.960938 28.058594 6.695312 C 27.96875 6.433594 27.925781 6.390625 27.722656 6.367188 C 27.617188 6.351562 27.398438 6.292969 27.242188 6.238281 C 27.085938 6.183594 26.820312 6.117188 26.652344 6.105469 L 26.339844 6.074219 Z M 27.617188 7.207031 C 27.632812 7.371094 27.648438 7.839844 27.648438 8.246094 L 27.648438 8.988281 L 26.597656 8.988281 C 24.515625 8.996094 23.789062 9.097656 23.273438 9.46875 L 23.078125 9.609375 L 14.636719 9.71875 C 9.992188 9.78125 6.175781 9.816406 6.15625 9.800781 C 6.125 9.761719 6.402344 8.5 6.523438 8.148438 C 6.652344 7.777344 6.839844 7.433594 6.992188 7.289062 L 7.128906 7.164062 L 10.28125 7.125 L 13.433594 7.089844 L 13.460938 7.265625 C 13.527344 7.617188 13.464844 7.609375 15.449219 7.574219 C 17.414062 7.542969 17.34375 7.558594 17.394531 7.214844 L 17.425781 7.03125 L 18.367188 7.019531 C 18.882812 7.011719 20.464844 6.988281 21.871094 6.964844 C 23.28125 6.945312 25.144531 6.925781 26.007812 6.921875 L 27.582031 6.910156 Z M 17.207031 7.140625 C 17.203125 7.34375 17.191406 7.347656 15.402344 7.378906 L 13.679688 7.410156 L 13.679688 7.058594 L 15.441406 7.058594 C 17.089844 7.058594 17.207031 7.0625 17.207031 7.140625 Z M 27.609375 9.796875 C 27.597656 10.140625 27.582031 10.445312 27.574219 10.472656 C 27.558594 10.523438 27.085938 10.535156 25.429688 10.535156 L 23.296875 10.535156 L 23.273438 10.425781 C 23.257812 10.367188 23.25 10.179688 23.257812 10.011719 L 23.273438 9.699219 L 23.523438 9.558594 C 23.664062 9.484375 23.890625 9.382812 24.03125 9.34375 C 24.308594 9.265625 25.382812 9.207031 26.777344 9.191406 L 27.628906 9.183594 Z M 23.054688 10.175781 C 23.054688 10.371094 23.035156 10.535156 23.011719 10.535156 C 22.988281 10.535156 22.953125 10.617188 22.933594 10.71875 L 22.90625 10.910156 L 20.675781 10.9375 C 19.449219 10.957031 18.433594 10.960938 18.425781 10.949219 C 18.410156 10.933594 18.386719 10.683594 18.375 10.390625 L 18.351562 9.859375 L 19.726562 9.84375 C 20.480469 9.839844 21.539062 9.832031 22.078125 9.820312 L 23.054688 9.8125 Z M 18.171875 10.414062 L 18.171875 10.972656 L 15.503906 10.980469 L 12.835938 10.996094 L 12.34375 12.375 C 12.070312 13.132812 11.835938 13.769531 11.828125 13.800781 C 11.808594 13.851562 11.164062 13.335938 11.164062 13.261719 C 11.164062 13.234375 11.382812 12.625 11.648438 11.910156 C 11.910156 11.199219 12.117188 10.605469 12.113281 10.59375 C 12.042969 10.53125 11.261719 10.484375 10.609375 10.496094 C 9.710938 10.527344 9.183594 10.632812 8.457031 10.9375 C 8.019531 11.121094 7.964844 11.132812 7.296875 11.164062 C 6.910156 11.1875 6.460938 11.21875 6.296875 11.238281 C 6.007812 11.265625 6 11.265625 5.972656 11.15625 C 5.847656 10.464844 5.847656 10.503906 5.960938 10.285156 C 6.015625 10.167969 6.070312 10.066406 6.082031 10.058594 C 6.085938 10.042969 8.652344 10 11.785156 9.957031 C 14.910156 9.910156 17.632812 9.871094 17.824219 9.863281 L 18.171875 9.859375 Z M 5.722656 10.78125 C 5.738281 10.867188 5.75 11.015625 5.75 11.117188 L 5.75 11.300781 L 5.429688 11.359375 C 5.246094 11.390625 4.964844 11.460938 4.800781 11.511719 L 4.5 11.601562 L 4.277344 11.445312 C 4.152344 11.359375 4.066406 11.257812 4.070312 11.21875 C 4.09375 11.097656 4.386719 10.933594 4.679688 10.875 C 4.828125 10.847656 5.109375 10.78125 5.292969 10.734375 C 5.480469 10.6875 5.644531 10.644531 5.660156 10.636719 C 5.679688 10.636719 5.703125 10.699219 5.722656 10.78125 Z M 17.933594 11.183594 C 17.933594 11.195312 17.855469 11.300781 17.757812 11.417969 C 17.660156 11.527344 17.511719 11.765625 17.429688 11.9375 C 17.347656 12.113281 17.273438 12.261719 17.269531 12.273438 C 17.265625 12.28125 17.101562 12.140625 16.910156 11.960938 C 16.722656 11.785156 16.433594 11.550781 16.273438 11.449219 L 15.984375 11.261719 L 13.722656 11.261719 L 13.515625 11.40625 C 12.953125 11.789062 12.6875 12.753906 12.972656 13.363281 C 13.035156 13.503906 13.183594 13.699219 13.316406 13.8125 L 13.546875 14.015625 L 12.765625 14.015625 C 12.339844 14.015625 11.988281 14.007812 11.988281 13.992188 C 11.988281 13.972656 12.84375 11.566406 12.949219 11.296875 L 13 11.164062 L 15.464844 11.164062 C 16.820312 11.164062 17.933594 11.175781 17.933594 11.183594 Z M 9.289062 11.808594 C 9.652344 11.980469 9.671875 12.007812 10.039062 12.527344 C 10.246094 12.828125 10.433594 13.097656 10.453125 13.136719 C 10.484375 13.175781 10.453125 13.234375 10.367188 13.296875 C 10.0625 13.539062 9.957031 14.046875 10.167969 14.273438 C 10.382812 14.5 10.875 14.691406 11.257812 14.691406 L 11.472656 14.691406 L 11.335938 14.839844 C 10.980469 15.207031 10.359375 15.226562 9.65625 14.902344 C 9.429688 14.789062 9.136719 14.628906 9.007812 14.542969 C 8.398438 14.121094 8.261719 13.882812 8.453125 13.558594 C 8.507812 13.464844 8.535156 13.386719 8.511719 13.386719 C 8.425781 13.386719 8.203125 13.605469 8.140625 13.75 C 8.085938 13.886719 8.039062 13.914062 7.773438 13.984375 C 7.34375 14.089844 6.90625 14.128906 6.765625 14.074219 C 6.679688 14.039062 6.605469 14.046875 6.511719 14.097656 C 6.351562 14.175781 6.253906 14.136719 5.972656 13.875 L 5.789062 13.703125 L 5.910156 13.945312 C 5.980469 14.074219 6.089844 14.238281 6.15625 14.300781 C 6.3125 14.445312 6.269531 14.515625 5.921875 14.675781 C 5.660156 14.800781 5.273438 14.828125 5.050781 14.742188 C 4.976562 14.710938 4.933594 14.710938 4.953125 14.738281 C 5.027344 14.859375 5.480469 14.949219 5.878906 14.921875 L 6.277344 14.894531 L 6.25 15.148438 C 6.210938 15.5 6.007812 16.171875 5.863281 16.4375 C 5.714844 16.71875 5.257812 17.234375 4.890625 17.550781 C 4.585938 17.8125 3.957031 18.144531 3.625 18.21875 C 3.320312 18.289062 2.726562 18.28125 2.441406 18.203125 C 1.855469 18.046875 1.304688 17.621094 1.0625 17.132812 C 0.953125 16.90625 0.941406 16.828125 0.917969 15.953125 L 0.894531 15.015625 L 1.667969 14.28125 C 2.949219 13.066406 3.640625 12.496094 4.15625 12.226562 C 4.277344 12.171875 4.425781 12.09375 4.496094 12.058594 C 4.832031 11.890625 5.292969 11.789062 6.5 11.628906 C 6.582031 11.621094 7.15625 11.613281 7.785156 11.621094 L 8.921875 11.625 Z M 15.582031 11.746094 C 16.007812 11.8125 16.273438 11.960938 16.4375 12.21875 C 16.644531 12.546875 16.625 12.726562 16.371094 12.976562 C 16.238281 13.097656 16.042969 13.21875 15.859375 13.292969 C 15.578125 13.394531 15.511719 13.398438 14.949219 13.367188 C 14.609375 13.355469 14.308594 13.316406 14.273438 13.285156 C 14.195312 13.21875 14.191406 12.671875 14.261719 12.398438 C 14.292969 12.292969 14.371094 12.089844 14.4375 11.949219 L 14.554688 11.695312 L 14.925781 11.695312 C 15.128906 11.695312 15.421875 11.714844 15.582031 11.746094 Z M 17.109375 12.730469 C 17.105469 13.160156 16.855469 13.535156 16.410156 13.769531 C 16.234375 13.863281 16.136719 13.871094 15.441406 13.871094 C 14.457031 13.871094 14.273438 13.789062 15.207031 13.765625 C 15.835938 13.75 15.898438 13.742188 16.167969 13.609375 C 16.738281 13.332031 17.0625 12.890625 16.992188 12.484375 C 16.964844 12.316406 16.96875 12.304688 17.039062 12.394531 C 17.082031 12.449219 17.109375 12.585938 17.109375 12.730469 Z M 10.726562 13.457031 C 10.847656 13.601562 10.609375 13.824219 10.339844 13.824219 C 10.25 13.824219 10.246094 13.8125 10.320312 13.683594 C 10.386719 13.550781 10.5625 13.386719 10.636719 13.386719 C 10.65625 13.386719 10.695312 13.417969 10.726562 13.457031 Z M 11.207031 13.882812 C 11.539062 14.15625 11.621094 14.332031 11.480469 14.4375 C 11.351562 14.523438 11.179688 14.515625 10.816406 14.402344 C 10.496094 14.308594 10.246094 14.128906 10.246094 14.003906 C 10.246094 13.957031 10.320312 13.921875 10.445312 13.902344 C 10.554688 13.882812 10.683594 13.824219 10.746094 13.753906 C 10.800781 13.691406 10.867188 13.640625 10.882812 13.636719 C 10.898438 13.628906 11.050781 13.742188 11.207031 13.882812 Z M 13.488281 14.691406 C 13.550781 14.804688 13.582031 14.960938 13.582031 15.15625 C 13.582031 15.421875 13.5625 15.484375 13.386719 15.746094 C 13.136719 16.121094 12.550781 16.675781 12.253906 16.820312 C 11.980469 16.949219 11.503906 17.007812 10.683594 17.003906 C 10.238281 17.003906 10.160156 16.992188 10.296875 16.957031 C 10.386719 16.929688 10.492188 16.875 10.527344 16.828125 C 10.652344 16.660156 10.542969 15.734375 10.378906 15.625 C 10.34375 15.601562 10.136719 15.578125 9.910156 15.5625 C 9.539062 15.542969 9.507812 15.535156 9.609375 15.476562 C 9.699219 15.421875 9.777344 15.429688 10.082031 15.496094 C 10.820312 15.660156 11.511719 15.414062 11.851562 14.863281 C 11.898438 14.78125 11.9375 14.679688 11.9375 14.636719 C 11.9375 14.5625 12.007812 14.546875 12.484375 14.535156 C 13.421875 14.503906 13.386719 14.5 13.488281 14.691406 Z M 10.097656 15.933594 C 9.972656 16.175781 9.980469 16.386719 10.125 16.597656 L 10.242188 16.773438 L 9.144531 16.773438 L 9.015625 16.617188 C 8.90625 16.492188 8.894531 16.433594 8.917969 16.292969 C 8.933594 16.195312 9 16.035156 9.066406 15.933594 L 9.183594 15.757812 L 10.1875 15.757812 Z M 10.378906 16.347656 L 10.40625 16.699219 L 10.289062 16.621094 C 10.117188 16.503906 10.0625 16.234375 10.167969 16.011719 C 10.242188 15.859375 10.261719 15.84375 10.300781 15.917969 C 10.328125 15.964844 10.363281 16.15625 10.378906 16.347656 Z M 12.753906 17.242188 C 12.835938 17.527344 12.816406 17.796875 12.707031 17.976562 C 12.480469 18.351562 11.726562 18.953125 11.339844 19.066406 C 11.226562 19.101562 10.792969 19.140625 10.367188 19.15625 C 9.816406 19.175781 9.640625 19.167969 9.753906 19.136719 C 9.960938 19.074219 10.019531 18.914062 9.996094 18.488281 C 9.957031 17.882812 9.792969 17.699219 9.226562 17.648438 L 8.871094 17.613281 L 9.121094 17.488281 C 9.371094 17.367188 9.375 17.367188 10.425781 17.390625 C 11.59375 17.414062 12.078125 17.367188 12.421875 17.1875 C 12.710938 17.039062 12.703125 17.039062 12.753906 17.242188 Z M 5.007812 18.578125 C 4.730469 19.351562 4.542969 19.972656 4.542969 20.117188 C 4.542969 20.175781 4.601562 20.214844 4.726562 20.246094 C 4.953125 20.308594 6.148438 20.425781 7.289062 20.5 L 8.167969 20.554688 L 8.207031 20.707031 L 8.246094 20.855469 L 7.980469 20.871094 C 7.539062 20.894531 4.070312 20.613281 4.007812 20.546875 C 3.988281 20.53125 4.179688 19.972656 4.425781 19.308594 C 4.832031 18.226562 4.902344 18.085938 5.058594 17.945312 C 5.160156 17.863281 5.25 17.800781 5.257812 17.8125 C 5.269531 17.820312 5.15625 18.167969 5.007812 18.578125 Z M 9.457031 17.863281 L 9.566406 17.894531 L 9.464844 18.027344 C 9.410156 18.101562 9.355469 18.261719 9.34375 18.371094 C 9.324219 18.546875 9.34375 18.617188 9.441406 18.761719 C 9.585938 18.976562 9.597656 18.964844 9 19.039062 C 8.558594 19.097656 8.488281 19.078125 8.253906 18.859375 C 8.097656 18.714844 8.039062 18.472656 8.121094 18.3125 C 8.152344 18.25 8.253906 18.117188 8.351562 18.015625 L 8.527344 17.835938 L 8.941406 17.835938 C 9.167969 17.835938 9.402344 17.847656 9.457031 17.863281 Z M 1.765625 18.382812 C 2.246094 18.617188 2.507812 18.675781 3.046875 18.675781 C 3.460938 18.671875 3.621094 18.652344 3.914062 18.550781 C 4.113281 18.476562 4.289062 18.429688 4.292969 18.4375 C 4.300781 18.449219 4.101562 19.003906 3.851562 19.679688 L 3.394531 20.902344 L 3.640625 20.9375 C 3.78125 20.957031 4.402344 21.015625 5.027344 21.074219 C 5.648438 21.132812 6.195312 21.1875 6.234375 21.203125 C 6.347656 21.238281 5.515625 21.640625 4.949219 21.828125 C 3.097656 22.429688 1.390625 22.089844 0.832031 21 C 0.714844 20.777344 0.707031 20.714844 0.714844 20.15625 C 0.71875 19.546875 0.839844 18.667969 0.996094 18.144531 L 1.066406 17.882812 L 1.296875 18.070312 C 1.421875 18.171875 1.632812 18.3125 1.765625 18.382812 Z M 9.761719 18.210938 C 9.824219 18.4375 9.824219 18.835938 9.761719 18.875 C 9.734375 18.894531 9.648438 18.839844 9.570312 18.757812 C 9.394531 18.585938 9.382812 18.371094 9.523438 18.132812 C 9.636719 17.945312 9.691406 17.964844 9.761719 18.210938 Z M 11.746094 19.515625 C 11.746094 19.757812 11.605469 20.128906 11.46875 20.261719 C 11.390625 20.332031 11.238281 20.433594 11.117188 20.488281 C 10.871094 20.59375 10 20.785156 9.753906 20.785156 C 9.609375 20.777344 9.605469 20.773438 9.679688 20.714844 C 9.953125 20.507812 9.855469 19.832031 9.527344 19.667969 C 9.414062 19.609375 9.523438 19.597656 10.34375 19.570312 C 11 19.546875 11.34375 19.511719 11.480469 19.464844 C 11.738281 19.363281 11.746094 19.363281 11.746094 19.515625 Z M 9.375 19.832031 C 9.375 19.839844 9.34375 19.917969 9.300781 20.003906 C 9.207031 20.183594 9.242188 20.371094 9.386719 20.527344 L 9.484375 20.628906 L 9.222656 20.675781 C 8.613281 20.792969 8.660156 20.796875 8.601562 20.601562 C 8.519531 20.300781 8.539062 20.054688 8.660156 19.929688 C 8.75 19.835938 8.816406 19.816406 9.070312 19.816406 C 9.242188 19.816406 9.375 19.828125 9.375 19.832031 Z M 9.570312 20.003906 C 9.59375 20.058594 9.617188 20.1875 9.617188 20.300781 C 9.617188 20.464844 9.605469 20.5 9.535156 20.484375 C 9.488281 20.472656 9.421875 20.410156 9.382812 20.34375 C 9.324219 20.238281 9.324219 20.195312 9.371094 20.0625 C 9.445312 19.890625 9.496094 19.875 9.570312 20.003906 Z M 9.570312 20.003906 "/>
</g>
</svg>
