<svg width="144" height="47" viewBox="0 0 144 47" fill="none" xmlns="http://www.w3.org/2000/svg">
<path d="M13.1716 21.2319C11.4399 20.3178 10.5576 19.5017 10.5576 18.4243C10.5576 17.0532 11.7993 16.1718 13.7271 16.1718C15.9816 16.1718 17.9747 17.0859 17.9747 17.0859L19.5431 12.2869C19.5431 12.2869 18.1054 11.1769 13.8578 11.1769C7.9437 11.1769 3.82673 14.5721 3.82673 19.3384C3.82673 22.0481 5.75451 24.1048 8.30312 25.5738C10.3943 26.7164 11.1131 27.5652 11.1131 28.8058C11.1131 30.079 10.0675 31.1237 8.13975 31.1237C5.29707 31.1237 2.5851 29.6546 2.5851 29.6546L0.918701 34.4536C0.918701 34.4536 3.40196 36.1185 7.58428 36.1185C13.6617 36.1185 18.0728 33.1151 18.0728 27.7285C18.0074 24.7903 15.8182 22.7663 13.1716 21.2319ZM37.416 11.1116C34.41 11.1116 32.0574 12.5481 30.2603 14.7027L30.195 14.6701L32.8089 1.0893H26.0453L19.4451 35.6941H26.2087L28.4632 23.8762C29.3454 19.4037 31.6653 16.6288 33.8218 16.6288C35.3575 16.6288 35.9457 17.6735 35.9457 19.1426C35.9457 20.0567 35.8803 21.2319 35.6516 22.146L33.103 35.6941H39.8666L42.5132 21.7216C42.8073 20.2525 43.0033 18.4896 43.0033 17.2817C42.9707 13.3969 40.9775 11.1116 37.416 11.1116ZM58.2949 11.1116C50.1263 11.1116 44.7351 18.457 44.7351 26.6512C44.7351 31.8745 47.9698 36.1185 54.0473 36.1185C62.0525 36.1185 67.4438 28.969 67.4438 20.579C67.4765 15.7147 64.6665 11.1116 58.2949 11.1116ZM54.9622 30.9604C52.6423 30.9604 51.6947 29.0017 51.6947 26.5206C51.6947 22.6357 53.6879 16.335 57.3801 16.335C59.7653 16.335 60.5822 18.4243 60.5822 20.4158C60.5822 24.5618 58.5237 30.9604 54.9622 30.9604ZM84.7939 11.1116C80.2195 11.1116 77.6382 15.1597 77.6382 15.1597H77.5728L77.9649 11.536H71.9529C71.6588 13.9845 71.1033 17.7388 70.5805 20.5137L65.9081 45.292H72.6717L74.5668 35.2697H74.7302C74.7302 35.2697 76.1352 36.1511 78.6838 36.1511C86.6563 36.1511 91.8516 27.9896 91.8516 19.7628C91.8189 15.1924 89.7604 11.1116 84.7939 11.1116ZM78.3244 31.0257C76.5599 31.0257 75.5144 30.0137 75.5144 30.0137L76.6253 23.713C77.4095 19.469 79.6313 16.6941 81.9839 16.6941C84.075 16.6941 84.6959 18.6202 84.6959 20.4158C84.7286 24.7903 82.1146 31.0257 78.3244 31.0257ZM101.491 1.41576C99.334 1.41576 97.6023 3.146 97.6023 5.33329C97.6023 7.32469 98.8766 8.72848 100.804 8.72848H100.87C102.994 8.72848 104.791 7.29205 104.823 4.81095C104.856 2.81954 103.516 1.41576 101.491 1.41576ZM92.0149 35.6615H98.7785L103.353 11.634H96.5567L92.0149 35.6615ZM120.605 11.6013H115.9L116.129 10.4914C116.521 8.17349 117.893 6.14944 120.18 6.14944C121.389 6.14944 122.337 6.50854 122.337 6.50854L123.644 1.18724C123.644 1.18724 122.5 0.599609 119.952 0.599609C117.566 0.599609 115.148 1.28518 113.319 2.85219C110.999 4.81095 109.921 7.65116 109.398 10.524L109.202 11.634H106.032L105.019 16.7594H108.189L104.595 35.6941H111.358L114.952 16.7594H119.625L120.605 11.6013ZM136.91 11.634C136.91 11.634 132.662 22.3092 130.799 28.1529H130.734C130.603 26.2594 129.068 11.634 129.068 11.634H121.945L126.029 33.6374C126.094 34.1271 126.062 34.4209 125.866 34.7474C125.081 36.2817 123.742 37.7508 122.173 38.8281C120.899 39.7422 119.461 40.3625 118.318 40.7542L120.213 46.5C121.585 46.2061 124.461 45.0635 126.846 42.8109C129.917 39.9381 132.793 35.4656 135.733 29.3934L144 11.6013H136.91V11.634Z" fill="white"/>
</svg>
