<svg xmlns="http://www.w3.org/2000/svg" width="28" height="32"><path d="M26 2H1.992C.895 2 0 2.906 0 4.02v23.96C0 29.094.895 30 1.992 30H26c1.102 0 2-.906 2-2.02V4.02C28 2.906 27.102 2 26 2ZM8.46 26H4.313V12.637H8.47V26ZM6.388 10.812a2.407 2.407 0 0 1 0-4.812 2.412 2.412 0 0 1 2.406 2.406 2.402 2.402 0 0 1-2.406 2.406ZM24.02 26h-4.153v-6.5c0-1.55-.031-3.543-2.156-3.543-2.16 0-2.492 1.688-2.492 3.43V26H11.07V12.637h3.98v1.824h.055c.56-1.047 1.915-2.156 3.934-2.156 4.2 0 4.98 2.77 4.98 6.37Zm0 0"/></svg>