<svg xmlns="http://www.w3.org/2000/svg" width="62" height="64" fill="none"><path fill="#000" d="M62 32c0 17.125-13.875 31-31 31-3.2 0-6.275-.4875-9.175-1.3875 1.2625-2.0625 3.15-5.4375 3.85-8.125.375-1.45 1.925-7.375 1.925-7.375 1.0125 1.925 3.9625 3.5625 7.1 3.5625 9.35 0 16.0875-8.6 16.0875-19.2875 0-10.2375-8.3625-17.9-19.1125-17.9-13.375 0-20.4875 8.975-20.4875 18.7625 0 4.55 2.425 10.2125 6.2875 12.0125.5875.275.9.15 1.0375-.4125.1-.425.625-2.5375.8625-3.5125.075-.3125.0375-.5875-.2125-.8875-1.2625-1.5625-2.2875-4.4125-2.2875-7.075 0-6.8375 5.175-13.45 14-13.45 7.6125 0 12.95 5.1875 12.95 12.6125 0 8.3875-4.2375 14.2-9.75 14.2-3.0375 0-5.325-2.5125-4.5875-5.6.875-3.6875 2.5625-7.6625 2.5625-10.325 0-2.375-1.275-4.3625-3.925-4.3625-3.1125 0-5.6125 3.2125-5.6125 7.525 0 2.75.925 4.6.925 4.6s-3.0625 12.975-3.625 15.4c-.625 2.675-.375 6.45-.1125 8.9C8.175 56.3625 0 45.1375 0 32 0 14.875 13.875 1 31 1s31 13.875 31 31Z"/></svg>