<svg xmlns="http://www.w3.org/2000/svg" width="32" height="32"><path d="M28.71 9.48c.02.29.02.57.02.86C28.73 19 22.13 29 10.07 29 6.36 29 2.9 27.92 0 26.05a13.12 13.12 0 0 0 9.73-2.72 6.57 6.57 0 0 1-6.14-4.55 7 7 0 0 0 2.96-.12c-3-.6-5.25-3.25-5.25-6.44v-.08c.87.49 1.89.8 2.97.84A6.56 6.56 0 0 1 2.23 4.2a18.64 18.64 0 0 0 13.53 6.87 6.56 6.56 0 0 1 11.19-5.99c1.48-.29 2.9-.84 4.16-1.59a6.53 6.53 0 0 1-2.89 3.62c1.32-.15 2.6-.51 3.78-1.02-.9 1.3-2.01 2.46-3.29 3.39Zm0 0" style="stroke:none;fill-rule:nonzero;fill:#fff;fill-opacity:1"/></svg>